<svg xmlns="http://www.w3.org/2000/svg" width="801" height="801" viewBox="0 0 801 801">
  <style >
    svg {
      position: absolute;
      width: auto;
      height: 100%;
      animation: spin 1s linear infinite;
    }

    @keyframes spin {
      100% {
        transform: rotate(360deg);
      }
    }
  </style>

  <g fill-rule="evenodd" transform="rotate(180 400.5 400.5)">
    <path d="M131.038083,384.953866 C131.539424,400.129395 134.877791,417.547151 138.909829,433.070592 C145.935978,460.121428 154.69369,485.148395 167.882516,509.298691 C195.774696,560.372561 231.809328,600.660686 255.720491,617.635969 C266.702138,625.432183 285.610603,644.782895 321.123742,662.176829 C376.59108,689.344104 470.224732,710.78137 568.160367,675.693532 C588.869419,668.274008 602.198002,659.072602 623.830401,646.033388 C648.664262,631.064449 681.410321,599.737729 702.984641,570.488339 C765.721582,485.432718 753.788,410.657582 751.814111,386.953866 C750.887515,375.826708 738.987845,317.813513 702.984641,268.917535 C662.291735,213.652468 592.128368,168.083248 496.811576,178.701657 C448.504401,184.083137 413.757515,205.835911 388.91246,226.957503 C365.281902,247.046611 347.424905,272.859554 338.500848,295.729856 C321.91442,338.237049 328.052142,377.826881 330.369907,386.953866 C335.245835,406.154484 370.178671,532.282894 496.811576,513.837093 C540.275884,507.505927 561.648715,483.37608 575.731297,464.679025 C604.067501,427.057833 591.676085,386.953866 591.676085,386.953866 C591.676085,386.953866 575.780257,308.085757 496.811576,321.157869 C478.218088,324.23575 444.493964,349.773289 456.783644,387 C462.114109,403.146531 477.148256,416.954303 497,414.676735 C502.474214,414.048684 521.551832,406.824578 516.904952,385.69874 C515.510557,379.359488 510.785809,377.736371 507.85619,377.736371 C506.628359,377.736371 503.699908,378.46301 501.425892,380.560929 C500.530424,381.387053 500.006585,383.099657 499.854375,385.69874 C500.586415,383.578123 501.439957,382.226094 502.415,381.642651 C504.288731,380.521455 506.287875,380.229656 507.85619,380.560929 C512.044916,381.445708 512.961543,383.505405 513.659419,385.69874 C518.18506,399.922241 507.815284,408.488663 497,409.979615 C493.526739,410.458425 471.594118,412.791126 465.003414,387 C459.055385,363.723824 482.52301,343.128804 497.484685,338.358692 C537.360323,325.645459 561.561756,353.781672 571.500636,386.699577 C575.431749,399.719554 575.731297,430.913564 560.431838,449.430009 C538.632714,475.81279 516.138688,491.264776 496.811576,492.930046 C475.877726,494.733756 386.648085,507.102599 354.836912,386.953866 C333.637147,261.932414 461.364436,204.519024 496.811576,204.519024 C716.592841,185.929614 725.861494,427.516243 722.90984,386.953866 C733.579809,462.60395 710.149619,522.975864 664.734849,570.488339 C616.896255,620.536596 545.476681,655.790771 496.811576,658.247585 C433.777382,664.332539 342.1861,654.113345 273.35979,587.5119 C249.266982,567.640726 232.375917,545.598439 217.822847,523.342997 C185.108274,473.313875 171.683036,421.62381 167.882516,386.953866 C158.232771,285.84589 178.305578,233.212707 217.822847,172.056436 C231.338348,153.798424 240.389312,139.050398 251.02401,127.143803 C268.102199,108.023082 283.389487,92.8761641 300.065986,80.1486125 C344.68311,46.0966962 384.668527,20.5740898 481.978294,0.672437348 C481.978294,0.672437348 118.582254,7.91750419 131.038083,384.953866 Z" transform="rotate(90 442.363 347.336)"/>
    <path d="M37.0380826,401.953866 C37.5394236,417.129395 40.877791,434.547151 44.9098294,450.070592 C51.9359777,477.121428 60.6936903,502.148395 73.8825162,526.298691 C101.774696,577.372561 137.809328,617.660686 161.720491,634.635969 C172.702138,642.432183 191.610603,661.782895 227.123742,679.176829 C282.59108,706.344104 376.224732,727.78137 474.160367,692.693532 C494.869419,685.274008 508.198002,676.072602 529.830401,663.033388 C554.664262,648.064449 587.410321,616.737729 608.984641,587.488339 C671.721582,502.432718 659.788,427.657582 657.814111,403.953866 C656.887515,392.826708 644.987845,334.813513 608.984641,285.917535 C568.291735,230.652468 498.128368,185.083248 402.811576,195.701657 C354.504401,201.083137 319.757515,222.835911 294.91246,243.957503 C271.281902,264.046611 253.424905,289.859554 244.500848,312.729856 C227.91442,355.237049 234.052142,394.826881 236.369907,403.953866 C241.245835,423.154484 276.178671,549.282894 402.811576,530.837093 C446.275884,524.505927 467.648715,500.37608 481.731297,481.679025 C510.067501,444.057833 497.676085,403.953866 497.676085,403.953866 C497.676085,403.953866 481.780257,325.085757 402.811576,338.157869 C384.218088,341.23575 350.493964,366.773289 362.783644,404 C368.114109,420.146531 383.148256,433.954303 403,431.676735 C408.474214,431.048684 427.551832,423.824578 422.904952,402.69874 C421.510557,396.359488 416.785809,394.736371 413.85619,394.736371 C412.628359,394.736371 409.699908,395.46301 407.425892,397.560929 C406.530424,398.387053 406.006585,400.099657 405.854375,402.69874 C406.586415,400.578123 407.439957,399.226094 408.415,398.642651 C410.288731,397.521455 412.287875,397.229656 413.85619,397.560929 C418.044916,398.445708 418.961543,400.505405 419.659419,402.69874 C424.18506,416.922241 413.815284,425.488663 403,426.979615 C399.526739,427.458425 377.594118,429.791126 371.003414,404 C365.055385,380.723824 388.52301,360.128804 403.484685,355.358692 C443.360323,342.645459 467.561756,370.781672 477.500636,403.699577 C481.431749,416.719554 481.731297,447.913564 466.431838,466.430009 C444.632714,492.81279 422.138688,508.264776 402.811576,509.930046 C381.877726,511.733756 292.648085,524.102599 260.836912,403.953866 C239.637147,278.932414 367.364436,221.519024 402.811576,221.519024 C622.592841,202.929614 631.861494,444.516243 628.90984,403.953866 C639.579809,479.60395 616.149619,539.975864 570.734849,587.488339 C522.896255,637.536596 451.476681,672.790771 402.811576,675.247585 C339.777382,681.332539 248.1861,671.113345 179.35979,604.5119 C155.266982,584.640726 138.375917,562.598439 123.822847,540.342997 C91.1082736,490.313875 77.6830358,438.62381 73.8825162,403.953866 C64.2327713,302.84589 84.3055781,250.212707 123.822847,189.056436 C137.338348,170.798424 146.389312,156.050398 157.02401,144.143803 C174.102199,125.023082 189.389487,109.876164 206.065986,97.1486125 C250.68311,63.0966962 290.668527,37.5740898 387.978294,17.6724373 C387.978294,17.6724373 24.5822542,24.9175042 37.0380826,401.953866 Z"/>
    <path d="M148.038083,479.953866 C148.539424,495.129395 151.877791,512.547151 155.909829,528.070592 C162.935978,555.121428 171.69369,580.148395 184.882516,604.298691 C212.774696,655.372561 248.809328,695.660686 272.720491,712.635969 C283.702138,720.432183 302.610603,739.782895 338.123742,757.176829 C393.59108,784.344104 487.224732,805.78137 585.160367,770.693532 C605.869419,763.274008 619.198002,754.072602 640.830401,741.033388 C665.664262,726.064449 698.410321,694.737729 719.984641,665.488339 C782.721582,580.432718 770.788,505.657582 768.814111,481.953866 C767.887515,470.826708 755.987845,412.813513 719.984641,363.917535 C679.291735,308.652468 609.128368,263.083248 513.811576,273.701657 C465.504401,279.083137 430.757515,300.835911 405.91246,321.957503 C382.281902,342.046611 364.424905,367.859554 355.500848,390.729856 C338.91442,433.237049 345.052142,472.826881 347.369907,481.953866 C352.245835,501.154484 387.178671,627.282894 513.811576,608.837093 C557.275884,602.505927 578.648715,578.37608 592.731297,559.679025 C621.067501,522.057833 608.676085,481.953866 608.676085,481.953866 C608.676085,481.953866 592.780257,403.085757 513.811576,416.157869 C495.218088,419.23575 461.493964,444.773289 473.783644,482 C479.114109,498.146531 494.148256,511.954303 514,509.676735 C519.474214,509.048684 538.551832,501.824578 533.904952,480.69874 C532.510557,474.359488 527.785809,472.736371 524.85619,472.736371 C523.628359,472.736371 520.699908,473.46301 518.425892,475.560929 C517.530424,476.387053 517.006585,478.099657 516.854375,480.69874 C517.586415,478.578123 518.439957,477.226094 519.415,476.642651 C521.288731,475.521455 523.287875,475.229656 524.85619,475.560929 C529.044916,476.445708 529.961543,478.505405 530.659419,480.69874 C535.18506,494.922241 524.815284,503.488663 514,504.979615 C510.526739,505.458425 488.594118,507.791126 482.003414,482 C476.055385,458.723824 499.52301,438.128804 514.484685,433.358692 C554.360323,420.645459 578.561756,448.781672 588.500636,481.699577 C592.431749,494.719554 592.731297,525.913564 577.431838,544.430009 C555.632714,570.81279 533.138688,586.264776 513.811576,587.930046 C492.877726,589.733756 403.648085,602.102599 371.836912,481.953866 C350.637147,356.932414 478.364436,299.519024 513.811576,299.519024 C733.592841,280.929614 742.861494,522.516243 739.90984,481.953866 C750.579809,557.60395 727.149619,617.975864 681.734849,665.488339 C633.896255,715.536596 562.476681,750.790771 513.811576,753.247585 C450.777382,759.332539 359.1861,749.113345 290.35979,682.5119 C266.266982,662.640726 249.375917,640.598439 234.822847,618.342997 C202.108274,568.313875 188.683036,516.62381 184.882516,481.953866 C175.232771,380.84589 195.305578,328.212707 234.822847,267.056436 C248.338348,248.798424 257.389312,234.050398 268.02401,222.143803 C285.102199,203.023082 300.389487,187.876164 317.065986,175.148613 C361.68311,141.096696 401.668527,115.57409 498.978294,95.6724373 C498.978294,95.6724373 135.582254,102.917504 148.038083,479.953866 Z" transform="rotate(180 459.363 442.336)"/>
    <path d="M53.0380826,496.953866 C53.5394236,512.129395 56.877791,529.547151 60.9098294,545.070592 C67.9359777,572.121428 76.6936903,597.148395 89.8825162,621.298691 C117.774696,672.372561 153.809328,712.660686 177.720491,729.635969 C188.702138,737.432183 207.610603,756.782895 243.123742,774.176829 C298.59108,801.344104 392.224732,822.78137 490.160367,787.693532 C510.869419,780.274008 524.198002,771.072602 545.830401,758.033388 C570.664262,743.064449 603.410321,711.737729 624.984641,682.488339 C687.721582,597.432718 675.788,522.657582 673.814111,498.953866 C672.887515,487.826708 660.987845,429.813513 624.984641,380.917535 C584.291735,325.652468 514.128368,280.083248 418.811576,290.701657 C370.504401,296.083137 335.757515,317.835911 310.91246,338.957503 C287.281902,359.046611 269.424905,384.859554 260.500848,407.729856 C243.91442,450.237049 250.052142,489.826881 252.369907,498.953866 C257.245835,518.154484 292.178671,644.282894 418.811576,625.837093 C462.275884,619.505927 483.648715,595.37608 497.731297,576.679025 C526.067501,539.057833 513.676085,498.953866 513.676085,498.953866 C513.676085,498.953866 497.780257,420.085757 418.811576,433.157869 C400.218088,436.23575 366.493964,461.773289 378.783644,499 C384.114109,515.146531 399.148256,528.954303 419,526.676735 C424.474214,526.048684 443.551832,518.824578 438.904952,497.69874 C437.510557,491.359488 432.785809,489.736371 429.85619,489.736371 C428.628359,489.736371 425.699908,490.46301 423.425892,492.560929 C422.530424,493.387053 422.006585,495.099657 421.854375,497.69874 C422.586415,495.578123 423.439957,494.226094 424.415,493.642651 C426.288731,492.521455 428.287875,492.229656 429.85619,492.560929 C434.044916,493.445708 434.961543,495.505405 435.659419,497.69874 C440.18506,511.922241 429.815284,520.488663 419,521.979615 C415.526739,522.458425 393.594118,524.791126 387.003414,499 C381.055385,475.723824 404.52301,455.128804 419.484685,450.358692 C459.360323,437.645459 483.561756,465.781672 493.500636,498.699577 C497.431749,511.719554 497.731297,542.913564 482.431838,561.430009 C460.632714,587.81279 438.138688,603.264776 418.811576,604.930046 C397.877726,606.733756 308.648085,619.102599 276.836912,498.953866 C255.637147,373.932414 383.364436,316.519024 418.811576,316.519024 C638.592841,297.929614 647.861494,539.516243 644.90984,498.953866 C655.579809,574.60395 632.149619,634.975864 586.734849,682.488339 C538.896255,732.536596 467.476681,767.790771 418.811576,770.247585 C355.777382,776.332539 264.1861,766.113345 195.35979,699.5119 C171.266982,679.640726 154.375917,657.598439 139.822847,635.342997 C107.108274,585.313875 93.6830358,533.62381 89.8825162,498.953866 C80.2327713,397.84589 100.305578,345.212707 139.822847,284.056436 C153.338348,265.798424 162.389312,251.050398 173.02401,239.143803 C190.102199,220.023082 205.389487,204.876164 222.065986,192.148613 C266.68311,158.096696 306.668527,132.57409 403.978294,112.672437 C403.978294,112.672437 40.5822542,119.917504 53.0380826,496.953866 Z" transform="rotate(-90 364.363 459.336)"/>
  </g>
</svg>
