<svg id="shape" xmlns="http://www.w3.org/2000/svg" width="476" height="986" viewBox="0 0 476 986">
  <g fill="none" fill-rule="evenodd" transform="translate(3.282 3)">
    <g stroke="#320000" stroke-width="5">
      <path id="outer8" d="M236.889833,36.1109041 C148.677118,36.1109041 64.1505131,74.1016164 45.1388994,170.263168 C26.1272857,266.424719 164.355052,348.667662 164.355052,490.499157 C164.355052,565.693699 136.829012,613.611053 102.455599,661.231913 C71.9940854,703.433235 33.3577981,745.468648 45.1388994,805.05796 C70.2140435,931.889107 148.614745,940.596672 236.889833,940.596672 C325.164922,940.596672 404.316315,901.476392 423.378716,805.05796 C433.60486,753.333685 397.508405,714.72976 363.787285,661.231913 C334.64938,615.00524 307.837119,555.717356 307.598286,490.499157 C307.083053,349.804335 448.489679,297.27549 423.378716,170.263168 C398.267752,43.2508462 325.102548,36.1109041 236.889833,36.1109041 Z"/>
      <path id="inner8" d="M234.718042,-5.68434189e-14 C119.799299,-5.68434189e-14 29.4853417,62.6168344 4.71804211,168.147068 C-20.0492575,273.677301 119.718042,334.350361 119.718042,490 C119.718042,645.649639 -27.9484963,681.869893 4.71804211,821.057752 C37.3845805,960.245612 119.718042,980.00185 234.718042,980.00185 C349.718042,980.00185 439.884581,926.869893 464.718042,821.057752 C489.551504,715.245612 350.38926,644.402224 349.718042,490 C349.046825,335.597776 497.431244,307.533753 464.718042,168.147068 C432.00484,28.7603821 349.636785,-5.68434189e-14 234.718042,-5.68434189e-14 Z"/>
    </g>
    <g transform="translate(12.718 8)">
      <circle id="one" cx="222" cy="10" r="10"/>
      <circle cx="146" cy="20" r="10"/>
      <circle cx="79" cy="54" r="10"/>
      <circle cx="33" cy="106" r="10"/>
      <circle cx="10" cy="167" r="10"/>
      <circle cx="10" cy="167" r="10"/>
      <circle cx="23" cy="236" r="10"/>
      <circle cx="63" cy="305" r="10"/>
      <circle cx="102" cy="372" r="10"/>
      <circle cx="127" cy="451" r="10"/>
      <circle cx="122" cy="537" r="10"/>
      <circle cx="92" cy="608" r="10"/>
      <circle cx="51" cy="668" r="10"/>
      <circle cx="16" cy="731" r="10"/>
      <circle cx="10" cy="796" r="10"/>
      <circle cx="36" cy="870" r="10"/>
      <circle cx="85" cy="926" r="10"/>
      <circle cx="165" cy="950" r="10"/>
      <circle cx="248" cy="950" r="10"/>
      <circle cx="324" cy="933" r="10"/>
      <circle cx="381" cy="898" r="10"/>
      <circle cx="419" cy="844" r="10"/>
      <circle cx="433" cy="773" r="10"/>
      <circle cx="404" cy="700" r="10"/>
      <circle cx="365" cy="640" r="10"/>
      <circle cx="331" cy="571" r="10"/>
      <circle cx="315" cy="501" r="10"/>
      <circle cx="321" cy="431" r="10"/>
      <circle cx="351" cy="366" r="10"/>
      <circle cx="395" cy="300" r="10"/>
      <circle cx="429" cy="228" r="10"/>
      <circle cx="425" cy="145" r="10"/>
      <circle cx="395" cy="73" r="10"/>
      <circle cx="343" cy="30" r="10"/>
      <circle cx="283" cy="13" r="10"/>
    </g>
  </g>
</svg>
